<?xml version="1.0" encoding="UTF-8" standalone="no"?>
<!-- Created with Inkscape (http://www.inkscape.org/) -->

<svg
   xmlns:dc="http://purl.org/dc/elements/1.1/"
   xmlns:cc="http://creativecommons.org/ns#"
   xmlns:rdf="http://www.w3.org/1999/02/22-rdf-syntax-ns#"
   xmlns:svg="http://www.w3.org/2000/svg"
   xmlns="http://www.w3.org/2000/svg"
   xmlns:sodipodi="http://sodipodi.sourceforge.net/DTD/sodipodi-0.dtd"
   xmlns:inkscape="http://www.inkscape.org/namespaces/inkscape"
   width="744.09448819"
   height="1052.3622047"
   id="svg2"
   version="1.1"
   inkscape:version="0.48.3.1 r9886"
   sodipodi:docname="bulb.svg">
  <defs
     id="defs4" />
  <sodipodi:namedview
     id="base"
     pagecolor="#ffffff"
     bordercolor="#666666"
     borderopacity="1.0"
     inkscape:pageopacity="0.0"
     inkscape:pageshadow="2"
     inkscape:zoom="1.4"
     inkscape:cx="206.42857"
     inkscape:cy="628.57143"
     inkscape:document-units="px"
     inkscape:current-layer="layer1"
     showgrid="false"
     inkscape:window-width="1071"
     inkscape:window-height="599"
     inkscape:window-x="0"
     inkscape:window-y="24"
     inkscape:window-maximized="0" />
  <metadata
     id="metadata7">
    <rdf:RDF>
      <cc:Work
         rdf:about="">
        <dc:format>image/svg+xml</dc:format>
        <dc:type
           rdf:resource="http://purl.org/dc/dcmitype/StillImage" />
        <dc:title></dc:title>
      </cc:Work>
    </rdf:RDF>
  </metadata>
  <g
     inkscape:label="Layer 1"
     inkscape:groupmode="layer"
     id="layer1">
    <path
       inkscape:connector-curvature="0"
       style="fill:#ffffff;fill-opacity:1;stroke:#000000"
       d="m 244.98438,293.0787 c -31.55913,0 -57.125,27.51144 -57.125,61.4375 0,20.39402 9.23834,38.45226 23.46875,49.625 3.34168,18.22347 9.375,51.78125 9.375,51.78125 l 45.00446,0.009 12.15179,-51.16518 c 14.68342,-11.11736 24.28125,-29.47589 24.28125,-50.25 0,-33.92606 -25.59712,-61.4375 -57.15625,-61.4375 z"
       id="path2985"
       sodipodi:nodetypes="ssccccss" />
    <path
       sodipodi:type="arc"
       style="fill:#b3b3b3;fill-opacity:1;stroke:#000000;stroke-width:0;stroke-linecap:butt;stroke-linejoin:round;stroke-miterlimit:4;stroke-opacity:1;stroke-dasharray:none;stroke-dashoffset:0"
       id="path3762"
       sodipodi:cx="245.71428"
       sodipodi:cy="484.50504"
       sodipodi:rx="31.428572"
       sodipodi:ry="6.4285712"
       d="m 277.14285,484.50504 a 31.428572,6.4285712 0 1 1 -62.85714,0 31.428572,6.4285712 0 1 1 62.85714,0 z"
       transform="translate(-1.4285714,-18.571429)" />
    <path
       sodipodi:type="arc"
       style="fill:#b3b3b3;fill-opacity:1;stroke:#000000;stroke-width:0;stroke-linecap:butt;stroke-linejoin:round;stroke-miterlimit:4;stroke-opacity:1;stroke-dasharray:none;stroke-dashoffset:0"
       id="path3762-5"
       sodipodi:cx="245.71428"
       sodipodi:cy="484.50504"
       sodipodi:rx="31.428572"
       sodipodi:ry="6.4285712"
       d="m 277.14285,484.50504 a 31.428572,6.4285712 0 1 1 -62.85714,0 31.428572,6.4285712 0 1 1 62.85714,0 z"
       transform="translate(-1.4285643,-10.714282)" />
    <path
       sodipodi:type="arc"
       style="fill:#b3b3b3;fill-opacity:1;stroke:#000000;stroke-width:0;stroke-linecap:butt;stroke-linejoin:round;stroke-miterlimit:4;stroke-opacity:1;stroke-dasharray:none;stroke-dashoffset:0"
       id="path3762-5-6"
       sodipodi:cx="245.71428"
       sodipodi:cy="484.50504"
       sodipodi:rx="31.428572"
       sodipodi:ry="6.4285712"
       d="m 277.14285,484.50504 a 31.428572,6.4285712 0 1 1 -62.85714,0 31.428572,6.4285712 0 1 1 62.85714,0 z"
       transform="translate(-1.4285642,-2.8571391)" />
    <rect
       style="fill:#b3b3b3;fill-opacity:1;stroke:#000000;stroke-width:0;stroke-linecap:butt;stroke-linejoin:round;stroke-miterlimit:4;stroke-opacity:1;stroke-dasharray:none;stroke-dashoffset:0"
       id="rect3818"
       width="47.857143"
       height="17.857143"
       x="220"
       y="479.50507"
       ry="7.1428571" />
    <path
       sodipodi:type="arc"
       style="fill:#b3b3b3;fill-opacity:1;stroke:#000000;stroke-width:0;stroke-linecap:butt;stroke-linejoin:round;stroke-miterlimit:4;stroke-opacity:1;stroke-dasharray:none;stroke-dashoffset:0"
       id="path3762-51"
       sodipodi:cx="245.71428"
       sodipodi:cy="484.50504"
       sodipodi:rx="31.428572"
       sodipodi:ry="6.4285712"
       d="m 277.14285,484.50504 a 31.428572,6.4285712 0 1 1 -62.85714,0 31.428572,6.4285712 0 1 1 62.85714,0 z"
       transform="translate(-1.4285646,-25.428568)" />
    <path
       style="fill:#4d4d4d;fill-opacity:1;stroke:#000000;stroke-width:0;stroke-linecap:butt;stroke-linejoin:round;stroke-miterlimit:4;stroke-opacity:1;stroke-dasharray:none;stroke-dashoffset:0"
       id="path3863"
       d="m 237.53454,455.66717 c -0.24436,-0.86253 -0.40774,-1.73239 -0.71964,-2.57335 -0.35356,-0.80741 -0.51038,-1.67666 -0.75754,-2.51867 -0.30597,-1.16391 -0.41549,-2.35824 -0.71367,-3.52409 -0.35322,-1.30107 -0.46224,-2.64483 -0.53183,-3.98551 -0.0555,-1.42622 -0.0513,-2.85387 -0.0513,-4.28091 0.002,-1.43009 0.004,-2.86018 0.005,-4.29027 -0.007,-1.46601 0.26046,-2.93158 0.57034,-4.36116 0.29486,-1.18676 0.63226,-2.35798 1.0315,-3.51358 0.3522,-0.90845 0.79697,-1.77427 1.03368,-2.72317 0.10743,-0.7288 0.39622,-1.4072 0.65526,-2.09156 0.17471,-0.55697 0.52632,-1.04592 0.89534,-1.49027 1.78567,-1.86099 3.92918,-2.27618 6.55788,-3.87713 1.92462,-1.17213 -3.91322,2.23584 -5.87262,3.34885 -0.1484,0.0843 0.27644,-0.20154 0.40165,-0.31751 3.35266,-2.32048 4.6269,-3.62894 7.72748,-3.75992 0.69777,-0.0608 1.3031,0.28532 1.85978,0.68377 0.67336,0.50159 1.23901,1.17346 1.62303,1.92202 0.52557,0.71667 0.75596,1.58319 1.16178,2.36476 0.29814,0.88714 0.74052,1.71727 1.05376,2.59891 0.44929,0.91207 0.70235,1.89586 1.08735,2.83327 0.31224,1.08045 0.75405,2.11885 1.0514,3.20344 0.22577,1.16469 0.64005,2.26948 0.84847,3.43881 0.33557,1.15309 0.64258,2.2957 0.79204,3.49004 0.15774,1.17115 0.14634,2.35572 0.14777,3.53485 0.0273,1.24358 0.0451,2.46863 -0.1767,3.69538 -0.2855,1.2659 -0.40542,2.55497 -0.48132,3.84734 -0.052,1.09175 -0.0623,2.18601 -0.0474,3.27887 0.047,0.21972 -0.12961,1.25184 0.23552,1.29162 0,0 -6.05623,3.69128 -6.05623,3.69128 l 0,0 c -0.37839,-0.54985 -0.49427,-1.14137 -0.41848,-1.80437 0.0163,-1.10931 0.008,-2.21907 0.0553,-3.32786 0.076,-1.31816 0.1952,-2.63789 0.45271,-3.93441 0.23848,-1.18681 0.28486,-2.36291 0.23794,-3.57568 -0.01,-1.15422 -0.019,-2.30993 -0.11646,-3.46085 -0.13665,-1.18197 -0.41631,-2.32302 -0.78195,-3.45545 -0.191,-1.15156 -0.58775,-2.23981 -0.82778,-3.37837 -0.27558,-1.06287 -0.71746,-2.07012 -1.0169,-3.12562 -0.37544,-0.95304 -0.66725,-1.93325 -1.12773,-2.85153 -0.28516,-0.85953 -0.7201,-1.65685 -1.00651,-2.51495 -0.39081,-0.79003 -0.65018,-1.63867 -1.17141,-2.35804 -0.32338,-0.64371 -0.82419,-1.19444 -1.42925,-1.58635 -0.54936,-0.27304 -1.01081,-0.43403 -1.63202,-0.30307 -2.51917,0.29744 -6.40094,3.72506 4.5441,-2.98957 -0.84836,0.29782 0.31171,-0.15467 -0.41045,0.27377 -2.07684,1.23213 -4.12001,2.52942 -6.26962,3.62971 -2.01911,1.03348 3.91679,-2.28877 5.87758,-3.42905 0.11835,-0.0688 -0.51881,0.32554 -0.33912,0.23174 -0.44132,0.33251 -0.66217,0.76112 -1.05888,1.16058 -0.15819,0.71818 -0.60724,1.3406 -0.68933,2.06774 -0.22207,0.98454 -0.57271,1.90849 -1.04915,2.80093 -0.37742,1.16022 -0.79568,2.29805 -1.10313,3.48135 -0.36662,1.36147 -0.58253,2.80666 -0.63787,4.21149 -0.001,1.43002 -0.003,2.86004 -0.005,4.29006 -8.7e-4,1.416 -0.006,2.83249 0.041,4.24791 0.059,1.29221 0.14624,2.59042 0.489,3.84426 0.3116,1.15471 0.42079,2.32884 0.71865,3.48661 0.26938,0.82318 0.45863,1.658 0.74883,2.47397 0.32785,0.8452 0.49022,1.71513 0.78409,2.5706 0,0 -6.18861,3.40834 -6.18861,3.40834 z"
       inkscape:connector-curvature="0" />
    <path
       style="fill:#4d4d4d;fill-opacity:1;stroke:#000000;stroke-width:0;stroke-linecap:butt;stroke-linejoin:round;stroke-miterlimit:4;stroke-opacity:1;stroke-dasharray:none;stroke-dashoffset:0"
       id="path3867"
       d="m 238.67684,421.78753 c -0.57506,-1.03239 -1.00025,-2.13796 -1.50988,-3.20302 -0.70683,-1.59995 -1.46318,-3.1766 -2.16713,-4.77772 -0.96962,-2.11818 -2.04197,-4.18426 -3.06492,-6.27647 -1.03815,-2.11524 -2.27779,-4.11642 -3.33384,-6.2237 -0.82438,-1.80194 -1.61895,-3.61813 -2.4155,-5.43283 -0.48186,-1.24911 -1.11129,-2.42459 -1.46761,-3.72077 -0.10306,-0.6476 -0.49138,-1.18293 -0.76556,-1.76683 -0.68655,-1.20503 1.43614,-1.93583 2.60904,-2.0212 0.3355,0.005 0.67164,0.0127 1.0075,0.016 0.65675,0.008 1.31356,0.008 1.97035,0.0124 0.95257,-0.24544 1.90465,-0.47219 2.88172,-0.5978 0.4845,-0.13452 0.95621,-0.30401 1.43842,-0.44617 0,0 -2.21628,1.71154 -2.21628,1.71154 l 0,0 c -0.48492,0.1494 -0.96577,0.31694 -1.46534,0.41255 -0.98098,0.14858 -1.93218,0.42144 -2.91114,0.57067 -0.66339,0.003 -1.32676,0.001 -1.99015,-7.4e-4 -0.32659,-0.003 -0.66209,-0.0256 -0.9836,0.0391 -1.26123,0.44754 2.28694,-2.2692 2.12515,-1.08764 0.26405,0.60645 0.67141,1.15543 0.75748,1.82421 0.3329,1.2911 0.94537,2.46096 1.41225,3.70391 0.78208,1.81667 1.56502,3.6343 2.38955,5.43171 1.03795,2.11745 2.27925,4.11853 3.32041,6.23338 1.01963,2.09725 2.10543,4.15927 3.09167,6.2729 0.71054,1.5938 1.47876,3.16062 2.18828,4.75499 0.52378,1.07007 0.95199,2.18986 1.57457,3.20822 0,0 -2.47544,1.36334 -2.47544,1.36334 z"
       inkscape:connector-curvature="0" />
    <path
       style="fill:#4d4d4d;fill-opacity:1;stroke:#000000;stroke-width:0;stroke-linecap:butt;stroke-linejoin:round;stroke-miterlimit:4;stroke-opacity:1;stroke-dasharray:none;stroke-dashoffset:0"
       id="path3869"
       d="m 250.9493,419.56367 c 0.26158,-0.93834 0.59676,-1.85076 0.88989,-2.77956 0.5542,-1.41464 0.95033,-2.88265 1.45828,-4.31322 0.57999,-1.55739 1.19687,-3.10069 1.78871,-4.65427 0.60848,-1.41606 1.19575,-2.8463 1.67638,-4.31145 0.50421,-1.3789 1.01576,-2.76052 1.6332,-4.09341 0.49611,-1.10734 0.85838,-2.26524 1.29362,-3.39851 0.39635,-0.77632 0.81648,-1.5265 1.04189,-2.37309 0.0566,-0.51965 0.26835,-0.96212 0.55119,-1.39315 0.08,-0.11749 0.16753,-0.23028 0.24659,-0.34788 0.27948,0.6378 -0.22794,-0.0889 -0.46128,-0.20128 -0.4416,-0.21268 -0.93858,-0.20155 -1.41804,-0.21765 -0.85022,-0.29905 -1.7226,-0.50151 -2.61576,-0.61332 -1.03145,-0.38272 -2.14003,-0.48525 -3.1796,-0.81906 -0.93205,-0.33782 -1.899,-0.54954 -2.88285,-0.65641 -0.44098,-0.0349 -0.88394,-0.0703 -1.32673,-0.0577 0,0 2.30578,-1.67142 2.30578,-1.67142 l 0,0 c 0.43809,0.0223 0.87562,0.0562 1.31141,0.1068 0.98989,0.13186 1.95703,0.37515 2.90072,0.70304 1.04157,0.29446 2.11965,0.46506 3.15788,0.77952 0.88824,0.12666 1.74322,0.37086 2.61263,0.58273 0.52472,0.0222 1.05279,0.0457 1.51462,0.32547 0.27561,0.19395 0.54611,0.4276 0.72409,0.65899 -0.1129,0.0791 -0.20565,0.18522 -0.28906,0.29834 -0.30353,0.40191 -0.56959,0.79127 -0.61159,1.30803 -0.21353,0.86586 -0.58023,1.64868 -1.04281,2.41135 -0.45301,1.13865 -0.82938,2.29535 -1.30093,3.42421 -0.64638,1.31301 -1.13922,2.69736 -1.65823,4.06393 -0.46518,1.47443 -1.05584,2.91053 -1.67452,4.32625 -0.58782,1.5568 -1.21464,3.0973 -1.79963,4.6543 -0.51808,1.41583 -0.87034,2.88592 -1.43384,4.28592 -0.27066,0.93044 -0.63743,1.82487 -0.85402,2.77117 0,0 -2.55799,1.20133 -2.55799,1.20133 z"
       inkscape:connector-curvature="0" />
    <path
       style="fill:#999999;fill-opacity:1;stroke:#000000;stroke-width:0;stroke-linecap:butt;stroke-linejoin:round;stroke-miterlimit:4;stroke-opacity:1;stroke-dasharray:none;stroke-dashoffset:0"
       id="path3871"
       d="m 237.75174,385.93684 c 0.2301,0.8954 0.59989,1.74451 1.04016,2.55649 0.46593,1.03167 0.94536,2.0612 1.34887,3.12026 0.16781,0.76384 0.43207,1.48118 0.80305,2.16827 0.81811,-0.27304 -2.61945,2.30373 -2.25615,1.1051 0,0 2.55086,-1.24069 2.55086,-1.24069 l 0,0 c -0.11097,1.12722 -2.01745,2.53516 -2.74908,1.5382 -0.35452,-0.7079 -0.64737,-1.43126 -0.79704,-2.21209 -0.37801,-1.05442 -0.86027,-2.06892 -1.32792,-3.08473 -0.45471,-0.82073 -0.8197,-1.68958 -1.0882,-2.58748 0,0 2.47545,-1.36333 2.47545,-1.36333 z"
       inkscape:connector-curvature="0" />
    <path
       style="fill:#999999;fill-opacity:1;stroke:#000000;stroke-width:0;stroke-linecap:butt;stroke-linejoin:round;stroke-miterlimit:4;stroke-opacity:1;stroke-dasharray:none;stroke-dashoffset:0"
       id="path3873"
       d="m 234.97156,386.95973 c 1.08483,0.0124 2.16983,0.0113 3.25474,0.0131 1.46079,-1.8e-4 2.92157,0.004 4.38235,0.006 1.58797,4.1e-4 3.17593,-0.002 4.76389,-0.003 1.25357,0.011 2.48001,0.0789 3.69717,-0.23821 0,0 -2.22505,1.69832 -2.22505,1.69832 l 0,0 c -1.22378,0.27083 -2.46768,0.15115 -3.71379,0.16856 -1.5854,-10e-4 -3.17079,-0.003 -4.75619,-0.003 -1.46661,0.002 -2.93321,0.007 -4.39982,0.006 -1.09696,0.002 -2.19402,8.3e-4 -3.29091,0.0131 0,0 2.28761,-1.66205 2.28761,-1.66205 z"
       inkscape:connector-curvature="0" />
    <path
       style="fill:#999999;fill-opacity:1;stroke:#000000;stroke-width:0;stroke-linecap:butt;stroke-linejoin:round;stroke-miterlimit:4;stroke-opacity:1;stroke-dasharray:none;stroke-dashoffset:0"
       id="path3875"
       d="m 251.90784,385.30355 c -0.34792,1.02331 -0.48599,2.09352 -0.5779,3.16508 -0.0892,1.2082 -0.0901,2.42057 -0.0958,3.63135 0.004,0.85437 0.007,1.70875 0.0149,2.56309 0,0 -2.50256,1.27571 -2.50256,1.27571 l 0,0 c 0.005,-0.85903 0.003,-1.71808 0.01,-2.57711 8.3e-4,-1.21582 -0.008,-2.43337 0.0745,-3.64709 0.0971,-1.08258 0.21355,-2.16193 0.51906,-3.2097 0,0 2.55799,-1.20133 2.55799,-1.20133 z"
       inkscape:connector-curvature="0" />
    <path
       style="fill:#000000;fill-opacity:1;stroke:#000000;stroke-width:0;stroke-linecap:butt;stroke-linejoin:round;stroke-miterlimit:4;stroke-opacity:1;stroke-dasharray:none;stroke-dashoffset:0"
       id="path3881"
       d="m 240.88314,416.74772 c 0.008,-0.76064 0.01,-1.52143 0.006,-2.28211 -8.4e-4,-0.73745 0.002,-1.47491 -0.001,-2.21235 0.001,-0.7843 0.002,-1.56859 0.004,-2.35289 -0.0181,-0.7355 0.0945,-1.47016 -0.18387,-2.16534 -0.24354,-0.54786 -0.37472,-1.12945 -0.48479,-1.71583 -0.0403,-0.34098 -0.0569,-0.68424 -0.0682,-1.02724 -0.001,-0.18912 0.005,-0.37824 0.005,-0.56757 -0.0303,-0.25763 0.0608,-0.43262 0.27746,-0.58853 0.14935,-0.12364 0.27152,-0.27368 0.38968,-0.42604 1.7938,-1.30945 1.76349,-1.47173 3.05868,-1.46191 1.32059,-0.76759 -3.03506,2.31839 -1.74866,0.88151 1.53958,-1.10033 1.96981,-1.56111 3.37101,-1.58991 0.43885,-0.004 0.8778,0.002 1.31668,0.003 0.44574,-0.0679 0.64492,0.191 0.8057,0.57183 0.17841,0.10938 0.38609,0.19816 0.55028,0.45399 0.0927,0.35997 0.27293,0.29997 0.49235,0.53442 0.33931,0.36814 0.37516,0.84804 0.41701,1.32408 0.26204,0.73197 0.47507,1.46863 0.59729,2.23884 0.11732,1.00616 0.12102,2.02034 0.13527,3.03177 0.007,0.83105 0.002,1.66212 0.005,2.49318 0,0 -2.50909,1.27775 -2.50909,1.27775 l 0,0 c 0.007,-0.8323 0.008,-1.66466 0.008,-2.49697 -0.002,-0.99829 -0.011,-1.99973 -0.12123,-2.99294 -0.11794,-0.77807 -0.32403,-1.52097 -0.62333,-2.24898 -0.0283,-0.40184 -0.0289,-0.82823 -0.32343,-1.13579 -0.24393,-0.17441 -0.44934,-0.28038 -0.52944,-0.59242 -0.15383,-0.22996 -0.50522,-0.20673 -0.58358,-0.50238 -0.11307,-0.32344 -0.28217,-0.31319 -0.61101,-0.29422 -0.43796,-0.002 -0.87619,-0.006 -1.3139,0.0115 -1.13257,0.0755 -2.57064,1.23419 1.53241,-1.20115 -0.74409,0.98919 -1.91913,1.87706 -3.17348,1.90786 -1.13405,0.028 -1.93234,0.74033 1.8542,-1.37026 -0.0982,0.18899 -0.22881,0.35756 -0.37214,0.51521 -0.21688,0.23031 -0.40663,0.0147 -0.36732,0.36647 -0.002,0.1881 0.003,0.37627 -0.003,0.56404 -0.009,0.33121 0.001,0.66316 0.0343,0.9929 0.0845,0.57283 0.20499,1.13802 0.44462,1.66888 0.29326,0.73599 0.2373,1.48335 0.22288,2.26573 0.002,0.78283 0.003,1.56566 0.004,2.34849 -0.003,0.7379 -5.3e-4,1.47583 -0.001,2.21373 -0.004,0.75867 -0.003,1.51745 0.006,2.27607 0,0 -2.51944,1.28372 -2.51944,1.28372 z"
       inkscape:connector-curvature="0" />
    <path
       style="fill:#999999;fill-opacity:1;stroke:#000000;stroke-width:0;stroke-linecap:butt;stroke-linejoin:round;stroke-miterlimit:4;stroke-opacity:1;stroke-dasharray:none;stroke-dashoffset:0"
       id="path3883"
       d="m 239.34212,399.45738 c -0.40419,0.19792 -0.94622,0.65591 -1.04028,-0.0584 1.44914,-1.20306 2.83093,-1.69102 4.45526,-2.33028 1.06246,-0.41586 2.15831,-0.74184 3.24587,-1.09195 1.05006,-0.30434 2.14593,-0.37484 3.23203,-0.42929 0.64984,-0.0216 1.29987,-0.0247 1.94995,-0.0226 1.70295,0.009 -1.61922,-0.18955 -1.94505,1.67288 -0.0964,0.55085 3.27953,-1.96059 2.18376,-1.14949 -1.30824,1.06484 -2.54631,1.707 -4.11561,1.82102 -0.93705,0.34888 -1.93682,0.45151 -2.88889,0.73243 -1.09753,0.37459 -2.229,0.54861 -3.37801,0.65979 -0.87493,0.0692 -1.75254,0.0737 -2.62956,0.078 -0.46195,0.004 -0.92387,-0.001 -1.38583,9.4e-4 -1.49825,-0.0713 1.61993,-1.67131 2.69653,-1.66848 0.5941,0.38859 1.30016,0.58002 2.00281,0.50298 1.18146,-0.22222 2.37605,-0.33753 3.5747,-0.41075 1.31146,-0.0619 2.62471,-0.0771 3.93746,-0.0818 0.74361,-0.007 1.48724,-0.005 2.23085,-0.0111 1.20262,-0.002 1.00984,-0.30144 -2.27218,1.66508 -0.14872,0.0891 -0.67404,-0.002 -0.84809,-0.002 -0.99947,-0.006 -1.99895,-0.009 -2.99843,-0.0115 -1.3948,-0.002 -2.78961,-0.003 -4.18441,-0.003 -1.22543,-0.004 -2.45083,0.006 -3.67624,0.008 -0.67041,-0.007 -1.318,0.13655 -1.89143,-0.25973 -1.02896,-1.17773 1.67535,-1.99863 2.88131,-2.07529 1.07982,-0.15624 2.14757,-0.42195 3.24003,-0.55661 1.55843,-0.15118 3.12686,-0.15351 4.69116,-0.17633 1.18921,-0.13272 2.31205,0.17215 3.45272,0.44678 0.41319,0.093 0.82636,0.18861 1.24397,0.26023 -2.11266,1.74593 -1.88914,1.67058 -3.71466,1.65542 -1.07064,-0.0116 -2.14133,-0.0103 -3.212,-0.0105 -1.09647,0.11869 -2.12293,-0.21512 -3.17527,-0.45402 -0.6082,-0.0986 -1.09594,-0.13295 -1.43677,-0.68298 -0.15864,-0.29596 -0.16567,-0.63665 -0.0866,-0.95551 0.9216,-1.2318 2.41158,-1.66969 3.83954,-1.69881 1.07083,-0.11305 2.07576,0.12209 3.1105,0.35018 1.15879,0.12215 2.24848,0.52363 3.37334,0.80426 0.74403,0.17669 1.50443,0.23046 2.26561,0.26378 0,0 -2.27978,1.63801 -2.27978,1.63801 l 0,0 c -0.77105,-0.0479 -1.53981,-0.11722 -2.28981,-0.3152 -1.11574,-0.29782 -2.21088,-0.66446 -3.3631,-0.79891 -1.02601,-0.22424 -2.03165,-0.39635 -3.0883,-0.27889 -0.18741,0.01 -0.47436,0.0207 -0.6661,0.0477 -0.0959,0.0135 -0.36665,0.10723 -0.28524,0.0548 3.52636,-2.26971 2.90295,-1.59057 1.98553,-1.2027 -0.22873,0.095 -0.13364,0.45881 -0.0602,0.66605 0.26325,0.44348 0.84026,0.37537 1.28615,0.51299 1.03543,0.24752 2.05135,0.52 3.13041,0.40749 1.07673,10e-4 2.15345,0.004 3.23018,-0.002 1.65619,-0.004 2.42611,-0.48557 -0.9015,1.62652 -0.40537,-0.0963 -0.81057,-0.19332 -1.21476,-0.29445 -1.11722,-0.28239 -2.22179,-0.52245 -3.38655,-0.4073 -1.55991,0.0104 -3.1244,0.0271 -4.67577,0.20639 -1.10234,0.15405 -2.17589,0.44158 -3.2776,0.58118 -2.17386,0.39572 2.0361,-1.78919 1.76396,-1.1459 0.53225,0.29215 1.19546,0.0829 1.77678,0.14704 1.21843,0.002 2.43685,0.0114 3.6553,0.008 1.39728,-1.7e-4 2.79456,-2.9e-4 4.19184,-0.003 1.00995,-0.002 2.01991,-0.005 3.02985,-0.0113 0.56283,3.1e-4 0.0308,7.7e-4 0.60608,-0.002 0.0823,-3.9e-4 0.30759,-0.0563 0.24705,-5e-4 -1.7358,1.60091 -1.22587,1.68595 -2.30847,1.66267 -0.73135,-0.01 -1.46277,-0.0103 -2.19417,-0.0132 -1.30685,0.007 -2.61456,0.0109 -3.91953,0.09 -1.20771,0.0859 -2.40377,0.24343 -3.60079,0.42129 -0.72016,-0.0151 -1.37223,-0.2271 -2.032,-0.49594 -1.82666,0.006 0.6966,-1.62212 1.89388,-1.66501 0.45499,0.006 0.91001,0.007 1.36501,0.0116 0.8666,-2.1e-4 1.73426,-0.012 2.59802,-0.0885 1.13957,-0.11698 2.25376,-0.34068 3.34547,-0.69396 0.97668,-0.24727 1.96554,-0.44681 2.93857,-0.71023 0.32376,-0.0398 0.64089,-0.0796 0.95326,-0.17874 0.0854,-0.0271 0.32772,-0.14232 0.25146,-0.0952 -0.71594,0.4422 -1.44951,0.85522 -2.17426,1.28283 0.0618,-0.0391 0.12363,-0.0782 0.18544,-0.11725 0.83767,-0.52144 2.6161,-1.63202 2.75111,-1.5589 2.00856,1.08783 -1.91769,1.73296 -2.64251,1.66234 -0.64018,-0.005 -1.28079,-0.008 -1.92053,0.0206 -1.0716,0.0549 -2.14899,0.15083 -3.17698,0.47907 -1.08639,0.34926 -2.18064,0.68173 -3.24014,1.10551 -1.19434,0.43553 -4.35789,2.05385 0.34214,-0.55992 -0.41102,-0.23061 0.49827,-0.39043 0.67419,-0.5084 0,0 -2.23169,1.7338 -2.23169,1.7338 z"
       inkscape:connector-curvature="0" />
    <path
       style="fill:#999999;fill-opacity:1;stroke:#000000;stroke-width:0;stroke-linecap:butt;stroke-linejoin:round;stroke-miterlimit:4;stroke-opacity:1;stroke-dasharray:none;stroke-dashoffset:0"
       id="path3889"
       d="m 241.53398,453.93038 c -0.31934,-0.9094 -0.46529,-1.85641 -0.54929,-2.81222 -0.0955,-1.13179 -0.0857,-2.269 -0.0866,-3.40382 -0.006,-1.40513 0.34091,-2.78212 0.5171,-4.17233 0.21649,-1.74193 0.4716,-3.4898 0.80594,-5.21415 0.41391,-1.88329 0.60333,-3.80073 0.95355,-5.69515 0.28538,-1.60951 0.70344,-3.20111 1.24955,-4.74202 0.27655,-1.08294 0.82015,-1.98168 1.51306,-2.8344 0.95403,-1.39323 2.01367,-1.78569 3.62153,-2.7143 0.7394,0.0911 0.82239,0.96578 0.89591,1.55789 0.39917,1.79604 0.53471,3.62601 0.63211,5.45856 0.1182,2.85502 0.10577,5.71317 0.11122,8.57001 -5.1e-4,2.87918 0.009,5.75834 0.009,8.63752 -0.003,2.36905 -0.0746,4.73148 0.21086,7.08645 0.0422,0.27447 0.0844,0.54894 0.12666,0.82341 0,0 -2.4414,1.2884 -2.4414,1.2884 l 0,0 c -0.0378,-0.27945 -0.0756,-0.5589 -0.11339,-0.83834 -0.27441,-2.37198 -0.20057,-4.74769 -0.19166,-7.1327 0.003,-2.88265 0.0198,-5.76527 0.0135,-8.64793 -0.007,-2.84659 -0.0137,-5.6946 -0.1399,-8.5389 -0.10795,-1.81547 -0.24472,-3.63433 -0.70028,-5.40227 -0.046,-0.37398 -0.0497,-1.2795 -0.64106,-1.11465 3.95485,-2.42483 1.97929,-1.33013 1.19066,-0.14019 -0.65499,0.86896 -1.35833,1.64405 -1.57939,2.76855 -0.57856,1.5235 -0.99462,3.11237 -1.29501,4.71284 -0.36117,1.89368 -0.54835,3.80984 -0.94957,5.69699 -0.35444,1.70856 -0.58182,3.45574 -0.79402,5.18525 -0.16651,1.38058 -0.51218,2.74586 -0.52453,4.13694 0.005,1.12652 0.007,2.25428 0.0836,3.37872 0.0819,0.93049 0.20883,1.86125 0.54767,2.73851 0,0 -2.47544,1.36333 -2.47544,1.36333 z"
       inkscape:connector-curvature="0" />
  </g>
</svg>
